<svg xmlns="http://www.w3.org/2000/svg" width="18.59" height="20.016" viewBox="0 0 18.59 20.016"><g transform="translate(-16.969 0.25)"><g transform="translate(17.219)"><path d="M25.933,18.4h-5.09a2.509,2.509,0,0,1-2.506-2.506V3.624a2.509,2.509,0,0,1,2.506-2.506h5.173a.559.559,0,1,0,0-1.118H20.843a3.628,3.628,0,0,0-3.624,3.624V15.892a3.628,3.628,0,0,0,3.624,3.624h5.09a.559.559,0,0,0,0-1.118Z" transform="translate(-17.219)" fill="#fff" stroke="#fff" stroke-width="0.5"/><path d="M134.166,140.043l-3.554-3.554a.559.559,0,1,0-.791.791l2.6,2.6H121.078a.559.559,0,0,0,0,1.118h11.344l-2.6,2.6a.561.561,0,0,0,.393.957.546.546,0,0,0,.393-.166l3.554-3.554A.559.559,0,0,0,134.166,140.043Z" transform="translate(-116.24 -130.679)" fill="#fff" stroke="#fff" stroke-width="0.5"/></g></g></svg>